<svg id="visual" viewBox="0 0 900 600" width="900" height="600" xmlns="http://www.w3.org/2000/svg" xmlns:xlink="http://www.w3.org/1999/xlink" version="1.1"><rect x="0" y="0" width="900" height="600" fill="#fff"></rect><defs><linearGradient id="grad1_0" x1="33.3%" y1="0%" x2="100%" y2="100%"><stop offset="20%" stop-color="#ffffff" stop-opacity="1"></stop><stop offset="80%" stop-color="#ffffff" stop-opacity="1"></stop></linearGradient></defs><defs><linearGradient id="grad2_0" x1="0%" y1="0%" x2="66.7%" y2="100%"><stop offset="20%" stop-color="#ffffff" stop-opacity="1"></stop><stop offset="80%" stop-color="#ffffff" stop-opacity="1"></stop></linearGradient></defs><g transform="translate(900, 0)"><path d="M0 270.4C-28.3 262.7 -56.6 255 -77.9 239.7C-99.2 224.4 -113.5 201.5 -137 188.5C-160.4 175.5 -192.9 172.3 -215.2 156.4C-237.5 140.4 -249.7 111.7 -257.2 83.6C-264.7 55.4 -267.6 27.7 -270.4 0L0 0Z" fill="#000000"></path></g><g transform="translate(0, 600)"><path d="M0 -270.4C22.7 -251.1 45.4 -231.7 73.5 -226.4C101.7 -221 135.4 -229.6 158.9 -218.8C182.5 -208 196 -177.7 208.7 -151.6C221.4 -125.6 233.3 -103.7 243.5 -79.1C253.6 -54.5 262 -27.3 270.4 0L0 0Z" fill="#000000"></path></g></svg>